<?xml version="1.0" encoding="utf-8"?>
<!-- Generator: Adobe Illustrator 15.0.2, SVG Export Plug-In . SVG Version: 6.00 Build 0)  -->
<!DOCTYPE svg PUBLIC "-//W3C//DTD SVG 1.1//EN" "http://www.w3.org/Graphics/SVG/1.1/DTD/svg11.dtd">
<svg version="1.1" id="Layer_1" xmlns="http://www.w3.org/2000/svg" xmlns:xlink="http://www.w3.org/1999/xlink" x="0px" y="0px"
	 width="240.837px" height="52.197px" viewBox="114.773 41.954 240.837 52.197"
	 enable-background="new 114.773 41.954 240.837 52.197" xml:space="preserve">
<g>
	<g>
		<path fill="#FFFFFF" d="M134.178,48.985c-9.618,0-14.736,4.668-14.736,20.079c0,16.873,4.668,20.473,13.387,20.473
			c5.905,0,9.787-1.013,13.104-2.419c0.731,0.956,1.237,2.194,1.237,3.265c0,1.688-5.287,3.601-13.949,3.601
			c-10.349,0-18.448-2.531-18.448-25.535c0-16.704,7.818-23.51,19.518-23.51c10.967,0,16.816,4.725,16.816,18.167
			c0,18.392-5.905,20.079-9.055,20.079c-1.462,0-2.587-0.563-3.431-1.294c-0.844,0.675-2.925,1.35-6.13,1.35
			c-3.993,0.059-7.088-1.012-7.031-8.661c0.112-7.256,3.375-9.168,7.143-9.168c1.069,0,2.362,0.112,3.262,0.619
			c0,0,0.113-1.969,0.113-3.431c0.112-2.531-1.181-3.264-3.375-3.264c-2.361,0-3.881,0.448-5.624,1.404
			c-0.45-0.844-0.506-2.191-0.506-2.644c0.056-0.507,0.225-0.845,0.506-1.125c1.068-0.619,3.263-1.463,7.144-1.463
			c4.105,0,6.299,1.52,6.187,6.523l-0.281,11.307c-0.056,2.36-0.169,4.219-0.28,5.566c0.563,0.227,1.181,0.337,1.8,0.337
			c2.081,0,4.837-3.769,4.837-14.961C146.383,52.923,143.458,48.985,134.178,48.985z M135.865,68.783
			c-0.395-0.057-1.125-0.169-1.969-0.169c-2.361,0-4.05,1.237-4.105,6.131c-0.057,4.051,1.012,5.063,3.037,5.063
			c1.462,0,2.756-0.676,2.812-2.98L135.865,68.783z"/>
		<path fill="#FFFFFF" d="M171.749,46.285c0,1.068-0.337,2.081-0.73,2.758c-0.563-0.508-1.912-1.405-3.656-1.405
			c-3.543,0-7.143,2.53-7.143,17.379c0,11.418,2.306,13.947,5.625,13.947c2.137,0,4.163-0.898,5.174-1.742
			c0.338,0.729,0.676,1.8,0.676,2.756c0,2.192-2.813,4.05-6.975,4.05c-5.343,0-9.336-2.419-9.336-18.786
			c0-19.233,6.074-22.047,11.08-22.047C170.624,43.192,171.749,44.823,171.749,46.285z"/>
		<path fill="#FFFFFF" d="M174.393,56.129c0.955-0.618,4.273-1.521,8.549-1.521c4.838,0,6.976,1.8,6.976,6.862v2.979
			c0,6.47-0.058,13.22-0.338,17.492c-1.519,0.898-4.16,1.912-7.816,1.912c-4.104,0.057-8.043-0.844-8.043-8.549
			c0-7.818,3.711-9.226,7.479-9.226c1.237,0,2.979,0.169,4.104,0.729v-4.443c0-2.644-1.236-3.316-3.486-3.316
			c-2.813,0-5.793,0.563-7.424,1.236c-0.506-0.898-0.619-1.911-0.619-2.588C173.776,57.085,173.944,56.467,174.393,56.129z
			 M182.66,69.514c-2.25,0-4.161,0.787-4.161,5.68c0,4.105,1.463,4.838,3.654,4.838c1.237,0,2.477-0.448,2.979-0.957
			c0.17-1.854,0.17-6.018,0.17-9.055C184.572,69.682,183.447,69.514,182.66,69.514z"/>
		<path fill="#FFFFFF" d="M199.139,82.393c0,0.899,0,0.899-4.555,0.899V44.035c0-2.081,0.898-2.081,4.555-2.081V82.393z"/>
		<path fill="#FFFFFF" d="M221.018,81.833c-2.137,1.182-5.344,2.022-8.381,2.022c-6.691,0-8.437-3.037-8.437-9.337V56.128
			c0-0.956,0-0.956,4.726-0.956v19.742c0,3.653,0.729,4.947,3.77,4.947c1.013,0,2.587-0.226,3.769-1.013v-22.72
			c0-0.956,0.058-0.956,4.558-0.956v26.66H221.018z"/>
		<path fill="#FFFFFF" d="M237.385,61.416c-0.057-2.024-0.506-2.813-2.756-2.813c-1.238,0-2.531,0.28-3.826,0.957v22.834
			c0,0.899-0.168,0.899-4.555,0.899V56.467c2.476-1.125,5.398-1.855,8.493-1.855c2.418,0,3.993,0.619,5.063,1.744
			c1.912-1.068,4.611-1.744,6.918-1.744c5.625,0,6.299,2.869,6.299,7.933v19.854c0,0.899-0.168,0.899-4.557,0.899V62.483
			c0-2.699-0.506-3.824-2.756-3.824c-1.293,0-2.531,0.281-3.769,1.068v22.666c0,0.899,0.056,0.899-4.559,0.899V61.416H237.385z"/>
		<path fill="#FFFFFF" d="M256.057,89.426c0-2.813,0-3.992,0.957-3.992h18.73c0,2.867,0,3.992-0.9,3.992H256.057z"/>
		<path fill="#FFFFFF" d="M278.949,44.88c0,0,0-0.956,0.954-0.956h5.566c7.09,0,10.352,3.316,10.352,11.137
			c0,6.018-1.969,9.393-4.895,11.022c1.742,2.308,4.727,7.313,5.287,16.196c0,0.846-0.17,1.125-2.31,1.125
			c-0.729,0-1.688-0.056-2.696-0.11c-0.619-9.505-3.265-14.176-4.613-16.028c-0.395,0.056-0.787,0.056-1.125,0.056h-1.969v15.073
			c0,0.899-0.058,0.899-4.558,0.899V44.88H278.949z M286.318,47.917h-2.813v15.187h2.477c3.148,0,4.779-2.308,4.779-8.269
			C290.76,50.56,289.635,47.917,286.318,47.917z"/>
		<path fill="#FFFFFF" d="M298.24,56.409c-0.339-1.235-0.339-1.235,4.44-1.235l3.037,13.387c0.846,4.162,1.406,9.225,1.521,9.956
			c0.056-0.508,0.563-5.625,1.351-10.013l2.475-11.979c0.228-1.351,0.281-1.351,4.949-1.351l-6.918,29.641
			c-1.688,7.144-3.768,9.337-7.875,9.337c-3.373,0-4.555-0.898-4.555-2.193c0-0.844,0.227-1.969,0.674-2.588
			c0.731,0.508,2.25,0.9,3.545,0.9c1.742,0,3.262-1.463,4.105-6.074L298.24,56.409z"/>
		<path fill="#FFFFFF" d="M318.656,56.129c0.956-0.618,4.272-1.521,8.551-1.521c4.836,0,6.973,1.8,6.973,6.862v2.979
			c0,6.47-0.055,13.22-0.336,17.492c-1.52,0.898-4.162,1.912-7.818,1.912c-4.104,0.057-8.043-0.844-8.043-8.549
			c0-7.818,3.713-9.226,7.48-9.226c1.236,0,2.979,0.169,4.104,0.729v-4.443c0-2.644-1.237-3.316-3.485-3.316
			c-2.813,0-5.793,0.563-7.426,1.236c-0.507-0.898-0.617-1.911-0.617-2.588C318.039,57.085,318.207,56.467,318.656,56.129z
			 M326.926,69.514c-2.25,0-4.162,0.787-4.162,5.68c0,4.105,1.463,4.838,3.654,4.838c1.238,0,2.477-0.448,2.981-0.957
			c0.168-1.854,0.168-6.018,0.168-9.055C328.838,69.682,327.713,69.514,326.926,69.514z"/>
		<path fill="#FFFFFF" d="M338.793,56.522c2.192-0.956,5.903-1.913,8.887-1.913c5.904,0,7.93,2.081,7.93,7.537v20.247
			c0,0.899-0.11,0.899-4.725,0.899V63.498c0-3.546-0.563-4.895-3.375-4.895c-1.182,0-2.924,0.337-4.162,1.012v22.778
			c0,0.899-0.111,0.899-4.555,0.899V56.522z"/>
	</g>
</g>
</svg>
